HIERARCHY
ROOT Hips
{
	OFFSET 0.000000 0.000000 0.000000
	CHANNELS 6 Xposition Yposition Zposition Zrotation Yrotation Xrotation 
	JOINT LHipJoint
	{
		OFFSET 0.000000 0.000000 0.000000
		CHANNELS 3 Zrotation Yrotation Xrotation
		JOINT LeftUpLeg
		{
			OFFSET 1.363060 -1.794630 0.839290
			CHANNELS 3 Zrotation Yrotation Xrotation
			JOINT LeftLeg
			{
				OFFSET 2.448110 -6.726130 0.000000
				CHANNELS 3 Zrotation Yrotation Xrotation
				JOINT LeftFoot
				{
					OFFSET 2.562200 -7.039590 0.000000
					CHANNELS 3 Zrotation Yrotation Xrotation
					JOINT LeftToeBase
					{
						OFFSET 0.157640 -0.433110 2.322550
						CHANNELS 3 Zrotation Yrotation Xrotation
						End Site
						{
							OFFSET 0.000000 0.000000 0.000000
						}
					}
				}
			}
		}
	}
	JOINT RHipJoint
	{
		OFFSET 0.000000 0.000000 0.000000
		CHANNELS 3 Zrotation Yrotation Xrotation
		JOINT RightUpLeg
		{
			OFFSET -1.305520 -1.794630 0.839290
			CHANNELS 3 Zrotation Yrotation Xrotation
			JOINT RightLeg
			{
				OFFSET -2.542530 -6.985550 0.000000
				CHANNELS 3 Zrotation Yrotation Xrotation
				JOINT RightFoot
				{
					OFFSET -2.568260 -7.056230 0.000000
					CHANNELS 3 Zrotation Yrotation Xrotation
					JOINT RightToeBase
					{
						OFFSET -0.164730 -0.452590 2.363150
						CHANNELS 3 Zrotation Yrotation Xrotation
						End Site
						{
							OFFSET 0.000000 0.000000 0.000000
						}
					}
				}
			}
		}
	}
	JOINT LowerBack
	{
		OFFSET 0.000000 0.000000 0.000000
		CHANNELS 3 Zrotation Yrotation Xrotation
		JOINT Spine
		{
			OFFSET 0.028270 2.035590 -0.193380
			CHANNELS 3 Zrotation Yrotation Xrotation
			JOINT Spine1
			{
				OFFSET 0.056720 2.048850 -0.042750
				CHANNELS 3 Zrotation Yrotation Xrotation
				JOINT Neck
				{
					OFFSET 0.000000 0.000000 0.000000
					CHANNELS 3 Zrotation Yrotation Xrotation
					JOINT Neck1
					{
						OFFSET -0.054170 1.746240 0.172020
						CHANNELS 3 Zrotation Yrotation Xrotation
						JOINT Head
						{
							OFFSET 0.104070 1.761360 -0.123970
							CHANNELS 3 Zrotation Yrotation Xrotation
							End Site
							{
								OFFSET 0.000000 0.000000 0.000000
							}
						}
					}
				}
				JOINT LeftShoulder
				{
					OFFSET 0.000000 0.000000 0.000000
					CHANNELS 3 Zrotation Yrotation Xrotation
					JOINT LeftArm
					{
						OFFSET 3.362410 1.200890 -0.311210
						CHANNELS 3 Zrotation Yrotation Xrotation
						JOINT LeftForeArm
						{
							OFFSET 4.983000 -0.000000 -0.000000
							CHANNELS 3 Zrotation Yrotation Xrotation
							JOINT LeftHand
							{
								OFFSET 3.483560 -0.000000 -0.000000
								CHANNELS 3 Zrotation Yrotation Xrotation
								JOINT LeftFingerBase
								{
									OFFSET 0.000000 0.000000 0.000000
									CHANNELS 3 Zrotation Yrotation Xrotation
									JOINT LeftHandIndex1
									{
										OFFSET 0.715260 -0.000000 -0.000000
										CHANNELS 3 Zrotation Yrotation Xrotation
										End Site
										{
											OFFSET 0.000000 0.000000 0.000000
										}
									}
								}
								JOINT LThumb
								{
									OFFSET 0.000000 0.000000 0.000000
									CHANNELS 3 Zrotation Yrotation Xrotation
									End Site
									{
										OFFSET 0.000000 0.000000 0.000000
									}
								}
							}
						}
					}
				}
				JOINT RightShoulder
				{
					OFFSET 0.000000 0.000000 0.000000
					CHANNELS 3 Zrotation Yrotation Xrotation
					JOINT RightArm
					{
						OFFSET -3.136600 1.374050 -0.404650
						CHANNELS 3 Zrotation Yrotation Xrotation
						JOINT RightForeArm
						{
							OFFSET -5.241900 -0.000000 -0.000000
							CHANNELS 3 Zrotation Yrotation Xrotation
							JOINT RightHand
							{
								OFFSET -3.444170 -0.000000 -0.000000
								CHANNELS 3 Zrotation Yrotation Xrotation
								JOINT RightFingerBase
								{
									OFFSET 0.000000 0.000000 0.000000
									CHANNELS 3 Zrotation Yrotation Xrotation
									JOINT RightHandIndex1
									{
										OFFSET -0.622530 -0.000000 -0.000000
										CHANNELS 3 Zrotation Yrotation Xrotation
										End Site
										{
											OFFSET 0.000000 0.000000 0.000000
										}
									}
								}
								JOINT RThumb
								{
									OFFSET 0.000000 0.000000 0.000000
									CHANNELS 3 Zrotation Yrotation Xrotation
									End Site
									{
										OFFSET 0.000000 0.000000 0.000000
									}
								}
							}
						}
					}
				}
			}
		}
	}
}
MOTION
Frames: 11
Frame Time: 0.008333
24.153943 21.539755 10.913080 -2.775121 1.667132 5.618953 -15.548860 5.934981 5.614663 5.167610 2.247987 -21.913717 -26.879394 -33.907408 55.620222 -21.640808 59.113575 4.468456 -0.350719 1.219272 -3.089895 14.426404 -5.984091 6.337707 -5.432710 -0.292510 -21.942467 44.445714 20.283815 75.784867 22.376734 -64.686357 -7.402180 -0.337753 -1.175299 -1.613628 0.190682 0.413432 -3.861337 0.749761 0.507054 -4.212754 0.887809 0.393167 1.370311 -0.307284 -0.413701 -3.177897 3.363624 -8.191934 15.954138 -1.101914 -7.342072 -21.714226 -2.093041 2.044682 2.410715 -24.022494 10.548948 12.323107 8.293563 -5.462790 -27.069238 7.753938 -2.245800 -26.382098 -2.764254 0.875332 -0.000000 0.000000 0.000000 0.000000 0.000000 0.000000 0.000000 3.279564 -1.205370 2.141823 32.112280 -15.838251 11.847818 -15.249626 7.249000 -32.680322 -15.117102 -5.445127 -28.854656 6.210734 0.974776 0.000000 0.000000 0.000000 0.000000 0.000000 0.000000 0.000000
24.211806 21.472210 10.899474 -3.116768 1.575000 5.879289 -15.750034 6.038640 5.611978 4.971222 2.856060 -21.831226 -25.278437 -35.587874 53.416969 -19.910887 57.663874 5.808398 -0.209029 1.715999 -2.523819 14.407580 -5.926402 6.421141 -5.459615 -0.153643 -21.811347 44.024950 21.161207 74.282142 24.431621 -63.941390 -9.701506 -0.368153 -1.277530 -1.434796 0.501692 0.432353 -3.999769 0.750639 0.498527 -4.212756 1.037557 0.411899 1.250881 -0.326665 -0.416360 -3.277785 3.327261 -8.170467 15.879128 -1.065372 -7.342872 -21.123497 -2.099481 1.814874 2.345900 -24.599521 10.306835 11.122206 7.434941 -6.034653 -25.709212 7.599277 -2.695184 -24.904487 -2.746665 1.000788 0.000000 0.000000 0.000000 0.000000 0.000000 0.000000 0.000000 3.452935 -0.955672 2.144338 32.868412 -15.263061 12.494572 -15.080787 7.459072 -32.340126 -14.800093 -5.118091 -28.560536 6.045562 0.897243 0.000000 0.000000 0.000000 0.000000 0.000000 0.000000 0.000000
24.270117 21.395807 10.883054 -3.315890 1.208974 6.107891 -15.842327 5.912336 5.819870 5.334631 2.096722 -21.283731 -23.661324 -36.167273 50.505265 -24.233575 57.146931 2.646045 -0.603400 1.388524 -4.741816 14.437407 -5.996013 6.292249 -5.268640 -0.758896 -21.799750 42.311473 22.366021 72.499510 22.912014 -62.455153 -7.556418 -0.340485 -1.222451 -2.947251 0.666902 0.538860 -4.062753 0.742233 0.587398 -4.211443 1.135976 0.517789 1.161422 -0.366335 -0.389660 -3.422572 3.432257 -8.093731 15.886281 -1.173360 -7.248399 -20.788895 -2.217533 1.676092 2.362988 -25.303376 10.011009 12.795722 7.551075 -6.217968 -25.639765 7.619743 -2.612176 -24.811115 -2.758153 0.953316 0.000000 0.000000 0.000000 0.000000 0.000000 0.000000 0.000000 3.706923 -0.744485 2.150665 33.682138 -14.565275 13.308014 -15.048157 7.548680 -32.150829 -14.934609 -4.834687 -28.426202 6.033703 0.747087 0.000000 0.000000 0.000000 0.000000 0.000000 0.000000 0.000000
24.326046 21.297418 10.868821 -3.632677 1.157732 6.336809 -16.034411 6.009929 5.742297 5.328366 2.285825 -21.069990 -19.548631 -35.525633 45.827600 -26.241723 55.284529 2.926398 -0.684736 0.432710 -4.760204 14.412983 -5.924677 6.386961 -5.355739 -0.552536 -21.574455 41.648559 23.230081 70.791311 27.580191 -60.877209 -12.722880 -0.311490 -1.079267 -1.482998 0.928138 0.547218 -4.100367 0.744033 0.569253 -4.213244 1.200810 0.513700 1.036053 -0.332952 -0.376971 -3.549523 3.524044 -8.000431 15.903885 -1.270448 -7.143102 -20.584257 -2.379495 1.446008 2.307444 -26.098108 9.675706 13.915507 7.232678 -6.609988 -24.618362 4.814496 -3.809432 -23.758623 -1.533463 1.108458 -0.000000 0.000000 0.000000 0.000000 0.000000 0.000000 0.000000 3.899772 -0.537934 2.173233 34.539578 -13.809815 13.891465 -15.035692 7.718371 -32.228573 -15.912628 -5.051453 -28.287690 6.394903 0.641157 0.000000 0.000000 0.000000 0.000000 0.000000 0.000000 0.000000
24.383277 21.190333 10.849449 -3.884955 0.927181 6.606305 -16.136891 5.902404 5.822515 5.642617 1.519104 -20.653835 -16.958313 -34.642083 42.286239 -28.827288 54.391894 1.627256 -0.632024 0.993695 -4.718089 14.447049 -5.928739 6.321051 -5.149689 -0.933319 -21.557092 40.158797 24.402856 68.953812 27.024098 -59.603032 -11.703642 -0.276929 -0.984739 -2.838207 1.113259 0.615942 -4.157093 0.739475 0.618760 -4.212470 1.341871 0.583212 0.980162 -0.336005 -0.352007 -3.716128 3.619709 -7.860423 15.907837 -1.364791 -6.988517 -20.394312 -2.530531 1.258119 2.434079 -26.665088 9.103593 12.818387 6.339317 -7.254020 -23.430921 4.210883 -4.325196 -22.443321 -1.351488 1.242386 0.000000 0.000000 0.000000 0.000000 0.000000 0.000000 0.000000 4.193925 -0.313845 2.129591 35.288145 -13.006114 14.519402 -14.793350 7.934390 -31.600924 -15.150716 -4.531113 -27.818901 6.045474 0.582687 0.000000 0.000000 0.000000 0.000000 0.000000 0.000000 0.000000
24.440502 21.070334 10.829715 -4.144167 0.672509 6.878833 -16.299887 5.816787 5.844469 5.974297 0.607522 -20.164895 -14.723340 -33.913436 39.046893 -30.415080 55.352083 2.145566 -0.861316 1.360694 -6.317813 14.437115 -5.866123 6.350141 -5.199679 -0.848742 -21.367615 38.509779 25.268029 66.673506 31.281942 -56.830296 -15.830210 -0.305509 -1.067307 -1.880839 1.329393 0.670256 -4.190601 0.736650 0.650150 -4.212310 1.491035 0.635570 0.919123 -0.380110 -0.325142 -3.884617 3.716965 -7.749947 15.901323 -1.496783 -6.864122 -20.203394 -2.559833 1.076474 2.458134 -27.104097 8.812001 13.303634 6.617320 -7.256969 -24.198203 8.565766 -2.547292 -23.189694 -3.259362 0.953565 0.000000 0.000000 0.000000 0.000000 0.000000 0.000000 0.000000 4.417176 -0.118246 2.191684 36.103610 -12.052673 15.431112 -14.737939 8.052680 -31.236893 -14.939053 -4.396468 -27.488269 5.933146 0.555785 0.000000 0.000000 0.000000 0.000000 0.000000 0.000000 0.000000
24.499029 20.938070 10.808257 -4.352079 0.435022 7.146470 -16.518497 5.760170 5.851196 6.326871 -0.535233 -19.587508 -12.246114 -32.298218 35.611962 -30.976184 56.384915 3.297804 -1.316223 -0.367305 -8.603709 14.451470 -5.822011 6.366960 -5.082856 -0.876387 -21.278149 37.758320 26.629177 65.275701 31.298636 -56.184511 -15.793174 -0.162813 -0.564599 -2.991114 1.571237 0.724597 -4.190623 0.734214 0.676903 -4.212579 1.541593 0.674027 0.833780 -0.425392 -0.317708 -4.040722 3.794216 -7.655594 15.832151 -1.658328 -6.772530 -19.915586 -2.659225 0.866671 2.460536 -27.876052 8.498579 15.247592 6.678004 -7.545755 -24.340050 8.382356 -2.509697 -23.281396 -3.190832 0.912605 -0.000000 0.000000 0.000000 0.000000 0.000000 0.000000 0.000000 4.613152 0.111057 2.234062 36.904549 -11.090193 15.991114 -14.455935 8.234066 -30.554584 -14.976860 -3.984339 -26.884417 5.873725 0.411456 0.000000 0.000000 0.000000 0.000000 0.000000 0.000000 0.000000
24.555380 20.793740 10.783301 -4.592757 0.136282 7.349755 -16.718185 5.705649 5.885307 6.600393 -1.871271 -18.937532 -11.159081 -31.267526 33.872349 -29.272239 57.855997 4.618900 -2.310970 -0.315788 -15.384103 14.505423 -5.870102 6.318685 -5.002295 -0.970134 -21.137184 35.331908 27.300159 62.514258 32.046283 -53.737280 -15.824220 -0.266292 -0.952293 -3.181067 1.747846 0.801118 -4.077078 0.729075 0.733457 -4.212783 1.613738 0.739530 0.672091 -0.387976 -0.306242 -4.173218 3.890400 -7.513803 15.783665 -1.719399 -6.618506 -19.544437 -2.857115 0.521407 2.458768 -28.668638 8.069524 15.215944 5.677715 -8.210016 -22.389474 4.349857 -4.460313 -21.298336 -1.490169 1.267634 -0.000000 0.000000 0.000000 0.000000 0.000000 0.000000 0.000000 4.847672 0.499388 2.164116 37.732492 -10.397619 16.592440 -14.274933 8.465515 -30.117816 -14.969673 -4.156305 -26.338201 5.888202 0.486537 0.000000 0.000000 0.000000 0.000000 0.000000 0.000000 0.000000
24.612592 20.635478 10.759124 -4.804667 -0.073550 7.612922 -16.874610 5.535831 5.849076 6.714405 -3.167549 -18.471329 -10.077586 -29.374908 32.401200 -25.842162 58.274266 5.868765 -2.735560 -1.556629 -18.574816 14.490567 -5.659740 6.390354 -5.000330 -0.621923 -21.061350 35.215058 28.571430 61.742848 34.837797 -52.702704 -18.925004 -0.236995 -0.841950 -3.123660 1.928773 0.795630 -4.047522 0.731785 0.707518 -4.214183 1.741130 0.723565 0.685844 -0.433536 -0.282454 -4.396095 3.996603 -7.342840 15.747654 -1.852211 -6.432362 -19.323072 -2.970555 0.364394 2.451215 -29.192558 7.650937 15.788534 5.657921 -8.449395 -22.458256 7.152602 -3.538875 -21.401873 -2.711754 1.128437 -0.000000 0.000000 0.000000 0.000000 0.000000 0.000000 0.000000 5.134988 0.602924 2.407030 38.391786 -8.952210 17.319696 -14.072661 8.450678 -29.537648 -15.677334 -4.453745 -25.670086 6.151818 0.490352 0.000000 0.000000 0.000000 0.000000 0.000000 0.000000 0.000000
24.667031 20.464785 10.731805 -4.920149 -0.596092 7.842112 -16.773071 5.158488 6.037312 6.946851 -4.861309 -18.002607 -10.867023 -27.602641 33.430448 -26.257551 57.021619 -1.012578 -2.110511 -0.167912 -14.023244 14.484502 -5.610182 6.251110 -4.874892 -0.697188 -20.981053 32.560454 29.100072 59.095776 35.148164 -50.374483 -17.977832 -0.179743 -0.631807 -3.488805 1.923154 0.894987 -3.933580 0.722551 0.806766 -4.212942 1.926268 0.832786 0.578680 -0.464708 -0.240852 -4.527067 4.151025 -7.183852 15.674092 -2.010455 -6.242833 -18.963940 -3.096479 0.084192 2.372733 -29.685961 7.366992 16.064790 5.106921 -9.000595 -21.882571 7.583816 -3.574564 -20.801101 -2.946970 1.148527 -0.000000 0.000000 0.000000 0.000000 0.000000 0.000000 0.000000 5.479012 0.933096 2.484935 38.999713 -7.891037 17.855622 -13.702360 8.747433 -28.796920 -15.434611 -4.232416 -24.960415 6.038102 0.478718 0.000000 0.000000 0.000000 0.000000 0.000000 0.000000 0.000000
24.720935 20.282979 10.704789 -4.969332 -1.261857 8.086349 -16.624118 4.656301 6.374296 7.408282 -7.114069 -17.361797 -13.279533 -27.070333 35.816663 -29.575117 56.140878 -12.715889 -1.817842 -1.327601 -11.883064 14.434396 -5.504479 6.059353 -4.766589 -0.575469 -20.905243 30.193100 29.619208 56.673305 34.598835 -48.997027 -16.037479 -0.197916 -0.695583 -3.058930 1.936093 1.013484 -3.819877 0.711499 0.923925 -4.211382 1.974979 0.948161 0.543457 -0.490398 -0.220985 -4.709702 4.278426 -7.052499 15.527346 -2.205925 -6.100738 -18.466843 -3.316966 -0.088187 2.377030 -30.548596 6.910932 17.421970 4.732882 -9.249208 -20.229762 4.604434 -4.754918 -19.116139 -1.685394 1.336546 0.000000 0.000000 0.000000 0.000000 0.000000 0.000000 0.000000 5.775823 1.189017 2.619257 39.675859 -6.558013 18.480936 -13.269832 8.976041 -27.905630 -15.178425 -4.083812 -24.115807 5.924754 0.486460 0.000000 0.000000 0.000000 0.000000 0.000000 0.000000 0.000000
